<svg width="548" height="533" viewBox="0 0 548 533" fill="none" xmlns="http://www.w3.org/2000/svg">
<g filter="url(#filter0_d_108_1612)">
<path d="M129.187 397.963L171 331.841L77.3587 271.963L29 348.436L106.453 397.963H129.187Z" fill="#F0F0F0"/>
<path fill-rule="evenodd" clip-rule="evenodd" d="M84 416.963H187V396.963H84V416.963ZM185.662 415.673H85.3377V398.253H185.662V415.673Z" fill="#3F3D56"/>
<path d="M175.5 413.963C179.09 413.963 182 411.053 182 407.463C182 403.873 179.09 400.963 175.5 400.963C171.91 400.963 169 403.873 169 407.463C169 411.053 171.91 413.963 175.5 413.963Z" fill="#3B5D50"/>
<path d="M155.5 413.963C159.09 413.963 162 411.053 162 407.463C162 403.873 159.09 400.963 155.5 400.963C151.91 400.963 149 403.873 149 407.463C149 411.053 151.91 413.963 155.5 413.963Z" fill="#3B5D50"/>
<path d="M137.5 413.963C141.09 413.963 144 411.053 144 407.463C144 403.873 141.09 400.963 137.5 400.963C133.91 400.963 131 403.873 131 407.463C131 411.053 133.91 413.963 137.5 413.963Z" fill="#3B5D50"/>
<path d="M118.5 413.963C122.09 413.963 125 411.053 125 407.463C125 403.873 122.09 400.963 118.5 400.963C114.91 400.963 112 403.873 112 407.463C112 411.053 114.91 413.963 118.5 413.963Z" fill="#3B5D50"/>
<path d="M99.5 413.963C103.09 413.963 106 411.053 106 407.463C106 403.873 103.09 400.963 99.5 400.963C95.9101 400.963 93 403.873 93 407.463C93 411.053 95.9101 413.963 99.5 413.963Z" fill="#3B5D50"/>
<path d="M311.462 185.904V134.829H337V109.963H212V234.963H318.855V222.741C318.855 218.14 320.683 213.728 323.936 210.474C327.19 207.221 331.602 205.393 336.203 205.393H337V185.904H311.462Z" fill="#F0F0F0"/>
<rect x="51.6495" y="10.5683" width="41" height="41" transform="rotate(-14 51.6495 10.5683)" fill="#F0F0F0"/>
<rect x="366" y="432.963" width="84" height="17" fill="#F9BF29"/>
<rect x="344" y="346.963" width="123" height="16" fill="#F0F0F0"/>
<rect x="4" y="523.963" width="524" height="1" fill="#3F3D56"/>
<path fill-rule="evenodd" clip-rule="evenodd" d="M335.035 524.963H487.965C497.921 524.952 505.989 516.887 506 506.936V222.989C505.989 213.038 497.921 204.974 487.965 204.963H335.035C325.079 204.974 317.011 213.038 317 222.989V506.936C317.011 516.887 325.079 524.952 335.035 524.963ZM318.345 222.989C318.356 213.781 325.822 206.318 335.035 206.307H487.965C497.178 206.318 504.644 213.781 504.655 222.989V506.936C504.644 516.145 497.178 523.608 487.965 523.618H335.035C325.822 523.608 318.356 516.145 318.345 506.936V222.989Z" fill="#3F3D56"/>
<path fill-rule="evenodd" clip-rule="evenodd" d="M390 214.963C390 217.172 391.791 218.963 394 218.963C396.208 218.961 397.998 217.171 398 214.963C398 212.754 396.209 210.963 394 210.963C391.791 210.963 390 212.754 390 214.963ZM391.333 214.963C391.333 213.49 392.527 212.296 394 212.296C395.472 212.298 396.665 213.491 396.667 214.963C396.667 216.436 395.473 217.63 394 217.63C392.527 217.63 391.333 216.436 391.333 214.963Z" fill="#3F3D56"/>
<rect x="404" y="213.963" width="30" height="1" fill="#3F3D56"/>
<path d="M495 223.963V277.963C465.177 277.962 441.001 253.786 441 223.963H495Z" fill="#3B5D50"/>
<path fill-rule="evenodd" clip-rule="evenodd" d="M329 506.963H495V223.963H329V506.963ZM493.656 505.619H330.344V225.307H493.656V505.619Z" fill="#3F3D56"/>
<path opacity="0.1" d="M455.5 274.963C465.717 274.963 474 266.68 474 256.463C474 246.246 465.717 237.963 455.5 237.963C445.283 237.963 437 246.246 437 256.463C437 266.68 445.283 274.963 455.5 274.963Z" fill="black"/>
<path d="M452.5 276.963C462.717 276.963 471 268.68 471 258.463C471 248.246 462.717 239.963 452.5 239.963C442.283 239.963 434 248.246 434 258.463C434 268.68 442.283 276.963 452.5 276.963Z" fill="#F9BF29"/>
<rect x="336" y="234.963" width="26" height="9" fill="#3F3D56"/>
<rect x="350" y="324.963" width="26" height="9" fill="#3F3D56"/>
<path fill-rule="evenodd" clip-rule="evenodd" d="M351 359.963H475V342.963H351V359.963ZM473.652 358.655H352.348V344.271H473.652V358.655Z" fill="#3F3D56"/>
<rect x="344" y="397.963" width="123" height="16" fill="#F0F0F0"/>
<rect x="350" y="374.963" width="26" height="9" fill="#3F3D56"/>
<path fill-rule="evenodd" clip-rule="evenodd" d="M351 410.963H475V393.963H351V410.963ZM473.652 409.655H352.348V395.271H473.652V409.655Z" fill="#3F3D56"/>
<path fill-rule="evenodd" clip-rule="evenodd" d="M370 445.963H455V427.963H370V445.963ZM453.651 444.677H371.349V429.249H453.651V444.677Z" fill="#3F3D56"/>
<path d="M470 353.463C470 356.204 468.28 358.651 465.7 359.579C463.121 360.507 460.237 359.716 458.491 357.603L458.484 357.597C456.783 355.533 456.52 352.639 457.82 350.302C459.12 347.965 461.719 346.664 464.368 347.022C467.018 347.38 469.178 349.324 469.812 351.922C469.811 351.924 469.812 351.926 469.813 351.927C469.815 351.928 469.816 351.929 469.818 351.929C469.938 352.431 469.999 352.946 470 353.463Z" fill="#3B5D50"/>
<path opacity="0.1" d="M470 353.088C470 355.988 468.235 358.575 465.589 359.557C462.943 360.538 459.985 359.702 458.193 357.467L458.187 357.46C458.064 356.929 458.001 356.384 458 355.838C458 352.938 459.765 350.35 462.411 349.369C465.057 348.388 468.015 349.224 469.807 351.459C469.807 351.461 469.807 351.462 469.809 351.464C469.81 351.465 469.812 351.466 469.813 351.466C469.936 351.997 469.999 352.542 470 353.088Z" fill="black"/>
<path d="M466.5 362.963C470.09 362.963 473 360.053 473 356.463C473 352.873 470.09 349.963 466.5 349.963C462.91 349.963 460 352.873 460 356.463C460 360.053 462.91 362.963 466.5 362.963Z" fill="#3B5D50"/>
<path d="M470 403.463C470 406.204 468.28 408.651 465.7 409.579C463.121 410.507 460.237 409.716 458.491 407.603L458.484 407.597C456.783 405.533 456.52 402.639 457.82 400.302C459.12 397.965 461.719 396.664 464.368 397.022C467.018 397.38 469.178 399.324 469.812 401.922C469.811 401.924 469.812 401.926 469.813 401.927C469.815 401.928 469.816 401.929 469.818 401.929C469.938 402.431 469.999 402.946 470 403.463Z" fill="#3B5D50"/>
<path opacity="0.1" d="M470 404.088C470 406.988 468.235 409.575 465.589 410.557C462.943 411.538 459.985 410.702 458.193 408.467L458.187 408.46C458.064 407.929 458.001 407.384 458 406.838C458 403.938 459.765 401.35 462.411 400.369C465.057 399.388 468.015 400.224 469.807 402.459C469.807 402.461 469.807 402.462 469.809 402.464C469.81 402.465 469.812 402.466 469.813 402.466C469.936 402.997 469.999 403.542 470 404.088Z" fill="black"/>
<path d="M466.5 413.963C470.09 413.963 473 411.053 473 407.463C473 403.873 470.09 400.963 466.5 400.963C462.91 400.963 460 403.873 460 407.463C460 411.053 462.91 413.963 466.5 413.963Z" fill="#3B5D50"/>
<rect x="319" y="141.963" width="35" height="35" fill="#F0F0F0"/>
<path fill-rule="evenodd" clip-rule="evenodd" d="M447 158.963C447 163.381 450.582 166.963 455 166.963C459.416 166.958 462.995 163.379 463 158.963C463 154.545 459.418 150.963 455 150.963C450.582 150.963 447 154.545 447 158.963ZM448.333 158.963C448.333 155.281 451.318 152.296 455 152.296C458.68 152.3 461.662 155.283 461.667 158.963C461.667 162.645 458.682 165.63 455 165.63C451.318 165.63 448.333 162.645 448.333 158.963Z" fill="#3F3D56"/>
<path fill-rule="evenodd" clip-rule="evenodd" d="M261 279.963H278V262.963H261V279.963ZM276.692 278.655H262.308V264.271H276.692V278.655Z" fill="#3F3D56"/>
<path fill-rule="evenodd" clip-rule="evenodd" d="M527 410.963H544V393.963H527V410.963ZM542.692 409.655H528.308V395.271H542.692V409.655Z" fill="#3F3D56"/>
<path d="M199 293.867L201.998 295.493L212.198 301.029L228.665 309.963L238.262 292.034C240.087 288.631 240.494 284.638 239.392 280.933C238.29 277.229 235.77 274.118 232.387 272.286C225.044 268.293 215.981 269.532 209.96 275.35L209.955 275.356C208.511 276.752 207.292 278.367 206.343 280.142L199 293.867Z" fill="#2F2E41"/>
<path d="M244 474.043L242.069 496.923L234.827 497.963L230 471.963L244 474.043Z" fill="#FFB8B8"/>
<path d="M232.352 498.581C232.352 498.581 241.927 493.449 243.943 497.555C243.943 497.555 242.431 509.871 248.479 511.411C254.527 512.95 257.047 523.727 248.479 524.753C239.912 525.78 234.368 522.701 231.344 522.701C228.32 522.701 231.344 511.924 231.344 511.924L232.352 498.581Z" fill="#2F2E41"/>
<path d="M183 474.043L184.931 496.923L192.173 497.963L197 471.963L183 474.043Z" fill="#FFB8B8"/>
<path d="M195.648 498.581C195.648 498.581 186.073 493.449 184.057 497.555C184.057 497.555 185.569 509.871 179.521 511.411C173.473 512.95 170.953 523.727 179.521 524.753C188.088 525.78 193.632 522.701 196.656 522.701C199.68 522.701 196.656 511.924 196.656 511.924L195.648 498.581Z" fill="#2F2E41"/>
<path d="M223.5 297.963C230.956 297.963 237 291.919 237 284.463C237 277.007 230.956 270.963 223.5 270.963C216.044 270.963 210 277.007 210 284.463C210 291.919 216.044 297.963 223.5 297.963Z" fill="#FFB8B8"/>
<path d="M183 309.763L193.495 326.457L205.988 325.445L226.477 326.963C226.477 326.963 228.411 323.047 229.991 319.238C230.855 317.336 231.52 315.347 231.974 313.304C232.474 309.763 225.478 306.222 225.478 306.222C225.478 306.222 225.203 306.171 224.743 306.06C224.134 305.913 223.194 305.67 222.165 305.316C219.841 304.517 217.047 303.161 216.483 301.163C215.483 297.622 222.979 292.563 222.979 292.563L213.984 283.963C213.984 283.963 205.993 295.199 196.288 297.758C195.725 297.909 195.155 298.027 194.579 298.112C194.549 298.117 194.524 298.123 194.494 298.128C183.999 299.645 183 309.763 183 309.763Z" fill="#FFB8B8"/>
<path d="M188.264 305.963L182.477 310.501C182.477 310.501 177.741 332.184 179.319 338.235C180.898 344.286 178.793 349.833 178.793 350.841C178.793 351.85 174.058 389.668 174.058 389.668C174.058 389.668 164.587 409.838 174.584 407.821C184.581 405.804 180.898 385.634 180.898 385.634L193 350.337V320.586L188.264 305.963Z" fill="#FFB8B8"/>
<path d="M228.046 309.963L232.137 312.963L234.183 354.958L249.525 390.955C249.525 390.955 260.776 408.453 253.616 408.953C246.456 409.453 241.854 390.955 241.854 390.955L228.046 356.458L226 322.962L228.046 309.963Z" fill="#FFB8B8"/>
<path d="M202.734 311.963C202.734 311.963 212.821 319.041 228.96 316.513C228.96 316.513 233.499 325.613 230.978 330.668C228.456 335.724 234.004 347.857 235.012 349.373C236.021 350.89 247.621 382.234 251.656 416.105C255.69 449.977 266.786 473.232 257.203 476.265C247.621 479.298 227.951 482.837 225.934 479.804C223.917 476.771 220.891 401.444 220.891 401.444L215.343 430.261C215.343 430.261 222.908 479.298 217.36 480.31C211.812 481.321 177.013 478.287 178.021 472.221C179.03 466.154 189.117 434.305 189.117 434.305C189.117 434.305 188.613 370.606 198.7 358.473C198.7 358.473 202.734 351.901 197.187 343.307C191.639 334.712 192.143 321.063 192.143 321.063C192.143 321.063 196.178 321.063 202.734 311.963Z" fill="#2F2E41"/>
<path d="M194 298.315L202.08 316.963L204 315.956L195.642 297.963L194 298.315Z" fill="#2F2E41"/>
<path d="M222 305.963L228.452 319.963L230 319.827L229.474 317.444L224.636 306.704C224.013 306.557 223.052 306.316 222 305.963Z" fill="#2F2E41"/>
<path d="M201.377 294.986C202.366 298.252 205.167 300.591 208.484 300.923C211.802 301.254 214.989 299.513 216.574 296.504C210.208 287.964 215.668 282.599 226.01 278.541C227.603 275.507 227.251 271.786 225.119 269.123C219.346 268.365 213.548 270.324 209.343 274.452L209.338 274.457L201.991 288.439C200.933 290.447 200.712 292.808 201.377 294.986Z" fill="#2F2E41"/>
<path d="M216.5 288.963C217.328 288.963 218 287.62 218 285.963C218 284.306 217.328 282.963 216.5 282.963C215.672 282.963 215 284.306 215 285.963C215 287.62 215.672 288.963 216.5 288.963Z" fill="#FFB8B8"/>
<path d="M222 281.084L237.212 287.963L240 281.822C239.52 279.577 238.514 277.478 237.065 275.695L226.595 270.963L222 281.084Z" fill="#2F2E41"/>
<path d="M258.5 415.963C262.09 415.963 265 413.053 265 409.463C265 405.873 262.09 402.963 258.5 402.963C254.91 402.963 252 405.873 252 409.463C252 413.053 254.91 415.963 258.5 415.963Z" fill="#3B5D50"/>
<path d="M42.5 455.963C44.9853 455.963 47 453.948 47 451.463C47 448.978 44.9853 446.963 42.5 446.963C40.0147 446.963 38 448.978 38 451.463C38 453.948 40.0147 455.963 42.5 455.963Z" fill="#FF6584"/>
<rect x="63" y="474.963" width="1" height="50" fill="#3F3D56"/>
<path d="M64 480.963C67.866 480.963 71 477.829 71 473.963C71 470.097 67.866 466.963 64 466.963C60.134 466.963 57 470.097 57 473.963C57 477.829 60.134 480.963 64 480.963Z" fill="#3F3D56"/>
<path d="M63 504.963C63 504.963 62.0233 483.69 42 486.163L63 504.963Z" fill="#3F3D56"/>
</g>
<defs>
<filter id="filter0_d_108_1612" x="0" y="0.649536" width="548" height="532.313" filterUnits="userSpaceOnUse" color-interpolation-filters="sRGB">
<feFlood flood-opacity="0" result="BackgroundImageFix"/>
<feColorMatrix in="SourceAlpha" type="matrix" values="0 0 0 0 0 0 0 0 0 0 0 0 0 0 0 0 0 0 127 0" result="hardAlpha"/>
<feOffset dy="4"/>
<feGaussianBlur stdDeviation="2"/>
<feComposite in2="hardAlpha" operator="out"/>
<feColorMatrix type="matrix" values="0 0 0 0 0 0 0 0 0 0 0 0 0 0 0 0 0 0 0.25 0"/>
<feBlend mode="normal" in2="BackgroundImageFix" result="effect1_dropShadow_108_1612"/>
<feBlend mode="normal" in="SourceGraphic" in2="effect1_dropShadow_108_1612" result="shape"/>
</filter>
</defs>
</svg>
